<svg width="998" height="145" viewBox="0 0 998 145" fill="none" xmlns="http://www.w3.org/2000/svg">
<mask id="mask0_2415_558" style="mask-type:alpha" maskUnits="userSpaceOnUse" x="7" y="24" width="989" height="106">
<path d="M38.5227 116H7.58523V28.7273H38.7784C47.5568 28.7273 55.1136 30.4744 61.4489 33.9688C67.7841 37.4347 72.6563 42.4205 76.0653 48.9261C79.5028 55.4318 81.2216 63.2159 81.2216 72.2784C81.2216 81.3693 79.5028 89.1818 76.0653 95.7159C72.6563 102.25 67.7557 107.264 61.3636 110.759C55 114.253 47.3864 116 38.5227 116ZM26.0369 100.19H37.7557C43.2102 100.19 47.7983 99.2244 51.5199 97.2926C55.2699 95.3324 58.0824 92.3068 59.9574 88.2159C61.8608 84.0966 62.8125 78.7841 62.8125 72.2784C62.8125 65.8295 61.8608 60.5597 59.9574 56.4688C58.0824 52.3778 55.2841 49.3665 51.5625 47.4347C47.8409 45.5028 43.2528 44.5369 37.7983 44.5369H26.0369V100.19ZM94.8899 116V28.7273H129.322C135.913 28.7273 141.538 29.9062 146.197 32.2642C150.884 34.5937 154.45 37.9034 156.893 42.1932C159.364 46.4545 160.6 51.4687 160.6 57.2358C160.6 63.0312 159.35 68.017 156.85 72.1932C154.35 76.3409 150.728 79.5227 145.984 81.7386C141.268 83.9545 135.558 85.0625 128.853 85.0625H105.799V70.233H125.87C129.393 70.233 132.319 69.75 134.648 68.7841C136.978 67.8182 138.711 66.3693 139.847 64.4375C141.012 62.5057 141.594 60.1051 141.594 57.2358C141.594 54.3381 141.012 51.8949 139.847 49.9062C138.711 47.9176 136.964 46.4119 134.606 45.3892C132.276 44.3381 129.336 43.8125 125.785 43.8125H113.342V116H94.8899ZM142.021 76.2841L163.711 116H143.342L122.12 76.2841H142.021ZM173.64 116V28.7273H232.447V43.9403H192.092V64.7358H229.421V79.9489H192.092V100.787H232.617V116H173.64ZM262.159 116H242.386L272.514 28.7273H296.293L326.378 116H306.605L284.744 48.6705H284.062L262.159 116ZM260.923 81.696H307.628V96.0994H260.923V81.696ZM336.882 28.7273H359.638L383.672 87.3636H384.695L408.729 28.7273H431.484V116H413.587V59.196H412.862L390.277 115.574H378.089L355.504 58.983H354.78V116H336.882V28.7273ZM474.46 116V28.7273H533.267V43.9403H492.912V64.7358H530.241V79.9489H492.912V100.787H533.438V116H474.46ZM563.704 28.7273L584.798 95.0341H585.607L606.744 28.7273H627.198L597.113 116H573.335L543.207 28.7273H563.704ZM637.702 116V28.7273H696.509V43.9403H656.154V64.7358H693.484V79.9489H656.154V100.787H696.68V116H637.702ZM784.176 28.7273V116H768.239L730.27 61.071H729.631V116H711.179V28.7273H727.372L765.043 83.6136H765.81V28.7273H784.176ZM796.097 43.9403V28.7273H867.773V43.9403H841.055V116H822.816V43.9403H796.097ZM926.921 53.8267C926.58 50.3892 925.117 47.7187 922.532 45.8153C919.947 43.9119 916.438 42.9602 912.006 42.9602C908.995 42.9602 906.452 43.3864 904.379 44.2386C902.305 45.0625 900.714 46.2131 899.606 47.6903C898.526 49.1676 897.987 50.8438 897.987 52.7188C897.93 54.2813 898.256 55.6449 898.967 56.8097C899.705 57.9744 900.714 58.983 901.992 59.8352C903.271 60.6591 904.748 61.3835 906.424 62.0085C908.1 62.6051 909.89 63.1165 911.793 63.5426L919.634 65.4176C923.441 66.2699 926.935 67.4062 930.117 68.8267C933.299 70.2472 936.055 71.9943 938.384 74.0682C940.714 76.142 942.518 78.5852 943.796 81.3977C945.103 84.2102 945.771 87.4347 945.799 91.071C945.771 96.4119 944.407 101.043 941.708 104.963C939.038 108.855 935.174 111.881 930.117 114.04C925.089 116.17 919.023 117.236 911.921 117.236C904.876 117.236 898.739 116.156 893.512 113.997C888.313 111.838 884.251 108.642 881.325 104.409C878.427 100.148 876.907 94.8778 876.765 88.5994H894.62C894.819 91.5256 895.657 93.9687 897.134 95.929C898.64 97.8608 900.643 99.3239 903.143 100.318C905.671 101.284 908.526 101.767 911.708 101.767C914.833 101.767 917.546 101.312 919.847 100.403C922.177 99.4943 923.981 98.2301 925.259 96.6108C926.538 94.9915 927.177 93.1307 927.177 91.0284C927.177 89.0682 926.594 87.4205 925.43 86.0852C924.293 84.75 922.617 83.6136 920.401 82.6761C918.214 81.7386 915.529 80.8864 912.347 80.1193L902.844 77.733C895.487 75.9432 889.677 73.1449 885.415 69.3381C881.154 65.5312 879.038 60.4034 879.066 53.9545C879.038 48.6705 880.444 44.054 883.285 40.1051C886.154 36.1562 890.089 33.0739 895.089 30.858C900.089 28.642 905.771 27.5341 912.134 27.5341C918.612 27.5341 924.265 28.642 929.094 30.858C933.952 33.0739 937.731 36.1562 940.43 40.1051C943.129 44.054 944.521 48.6278 944.606 53.8267H926.921ZM995.881 24.6364L967.756 129.125H952.116L980.241 24.6364H995.881Z" fill="black"/>
</mask>
<g mask="url(#mask0_2415_558)">
<rect x="-295" y="-442" width="1543" height="1029" fill="black"/>
</g>
</svg>
