<svg width="817" height="109" viewBox="0 0 817 109" fill="none" xmlns="http://www.w3.org/2000/svg">
<mask id="mask0_3204_5517" style="mask-type:alpha" maskUnits="userSpaceOnUse" x="0" y="0" width="817" height="109">
<rect width="817" height="109" fill="#D9D9D9"/>
</mask>
<g mask="url(#mask0_3204_5517)">
<path d="M32.6889 21.5455H49.7557L67.7812 65.5227H68.5483L86.5739 21.5455H103.641V87H90.2173V44.397H89.674L72.7351 86.6804H63.5945L46.6555 44.2372H46.1122V87H32.6889V21.5455ZM126.324 87H111.495L134.091 21.5455H151.925L174.488 87H159.659L143.263 36.5028H142.752L126.324 87ZM125.398 61.272H160.426V72.0746H125.398V61.272ZM182.367 87V21.5455H196.205V50.4055H197.068L220.623 21.5455H237.21L212.921 50.853L237.498 87H220.943L203.013 60.0895L196.205 68.3991V87H182.367ZM244.417 87V21.5455H288.523V32.9553H258.256V48.5518H286.253V59.9616H258.256V75.5902H288.65V87H244.417ZM320.355 21.5455H337.422L355.447 65.5227H356.214L374.24 21.5455H391.307V87H377.883V44.397H377.34L360.401 86.6804H351.26L334.322 44.2372H333.778V87H320.355V21.5455ZM462.858 54.2727C462.858 61.4105 461.505 67.483 458.799 72.4901C456.114 77.4972 452.449 81.3217 447.804 83.9638C443.181 86.5845 437.982 87.8949 432.208 87.8949C426.391 87.8949 421.171 86.5739 416.547 83.9318C411.924 81.2898 408.27 77.4652 405.585 72.4581C402.9 67.451 401.558 61.3892 401.558 54.2727C401.558 47.1349 402.9 41.0625 405.585 36.0554C408.27 31.0483 411.924 27.2344 416.547 24.6136C421.171 21.9716 426.391 20.6506 432.208 20.6506C437.982 20.6506 443.181 21.9716 447.804 24.6136C452.449 27.2344 456.114 31.0483 458.799 36.0554C461.505 41.0625 462.858 47.1349 462.858 54.2727ZM448.827 54.2727C448.827 49.6491 448.135 45.75 446.75 42.5753C445.386 39.4006 443.458 36.9929 440.965 35.3523C438.472 33.7116 435.553 32.8913 432.208 32.8913C428.863 32.8913 425.944 33.7116 423.451 35.3523C420.958 36.9929 419.019 39.4006 417.634 42.5753C416.27 45.75 415.588 49.6491 415.588 54.2727C415.588 58.8963 416.27 62.7955 417.634 65.9702C419.019 69.1449 420.958 71.5526 423.451 73.1932C425.944 74.8338 428.863 75.6541 432.208 75.6541C435.553 75.6541 438.472 74.8338 440.965 73.1932C443.458 71.5526 445.386 69.1449 446.75 65.9702C448.135 62.7955 448.827 58.8963 448.827 54.2727ZM473.109 21.5455H490.176L508.201 65.5227H508.968L526.994 21.5455H544.061V87H530.637V44.397H530.094L513.155 86.6804H504.014L487.075 44.2372H486.532V87H473.109V21.5455ZM555.462 87V21.5455H599.567V32.9553H569.301V48.5518H597.298V59.9616H569.301V75.5902H599.695V87H555.462ZM665.318 21.5455V87H653.365L624.888 45.8033H624.409V87H610.57V21.5455H622.715L650.968 62.7102H651.543V21.5455H665.318ZM674.259 32.9553V21.5455H728.016V32.9553H707.977V87H694.298V32.9553H674.259ZM772.376 40.37C772.121 37.7919 771.023 35.7891 769.085 34.3615C767.146 32.9339 764.514 32.2202 761.19 32.2202C758.932 32.2202 757.025 32.5398 755.469 33.179C753.914 33.7969 752.721 34.6598 751.89 35.7678C751.08 36.8757 750.675 38.1328 750.675 39.5391C750.633 40.7109 750.878 41.7337 751.411 42.6072C751.964 43.4808 752.721 44.2372 753.68 44.8764C754.638 45.4943 755.746 46.0376 757.004 46.5064C758.261 46.9538 759.603 47.3374 761.031 47.657L766.911 49.0632C769.766 49.7024 772.387 50.5547 774.773 51.62C777.16 52.6854 779.227 53.9957 780.974 55.5511C782.721 57.1065 784.074 58.9389 785.033 61.0483C786.013 63.1577 786.513 65.576 786.535 68.3033C786.513 72.3089 785.491 75.782 783.467 78.7223C781.464 81.6413 778.566 83.9105 774.773 85.5298C771.002 87.1278 766.453 87.9268 761.126 87.9268C755.842 87.9268 751.24 87.1172 747.32 85.4979C743.42 83.8786 740.374 81.4815 738.179 78.3068C736.006 75.1108 734.866 71.1584 734.759 66.4496H748.151C748.3 68.6442 748.928 70.4766 750.036 71.9467C751.165 73.3956 752.668 74.4929 754.543 75.2386C756.439 75.9631 758.58 76.3253 760.967 76.3253C763.31 76.3253 765.345 75.9844 767.071 75.3026C768.818 74.6207 770.171 73.6726 771.13 72.4581C772.089 71.2436 772.568 69.848 772.568 68.2713C772.568 66.8011 772.131 65.5653 771.258 64.5639C770.406 63.5625 769.148 62.7102 767.487 62.0071C765.846 61.304 763.832 60.6648 761.446 60.0895L754.319 58.2997C748.8 56.9574 744.443 54.8587 741.247 52.0036C738.051 49.1484 736.464 45.3026 736.485 40.4659C736.464 36.5028 737.518 33.0405 739.649 30.0788C741.801 27.1172 744.752 24.8054 748.502 23.1435C752.252 21.4815 756.513 20.6506 761.286 20.6506C766.144 20.6506 770.384 21.4815 774.006 23.1435C777.65 24.8054 780.484 27.1172 782.508 30.0788C784.532 33.0405 785.576 36.4709 785.64 40.37H772.376Z" fill="black"/>
</g>
</svg>
